HIERARCHY
ROOT Hips
{
  OFFSET 0 0 0
  CHANNELS 6 Xposition Yposition Zposition Zrotation Yrotation Xrotation
  JOINT LeftThigh
  {
    OFFSET 8.409438 0 -5.917753
    CHANNELS 3 Zrotation Yrotation Xrotation
    JOINT LeftLeg
    {
      OFFSET 0 0 -42.358652
      CHANNELS 3 Zrotation Yrotation Xrotation
      JOINT LeftFoot
      {
        OFFSET 0 0 -39.357303
        CHANNELS 3 Zrotation Yrotation Xrotation
      }
    }
  }
  JOINT RightThigh
  {
    OFFSET -8.409438 0 -5.917753
    CHANNELS 3 Zrotation Yrotation Xrotation
    JOINT RightLeg
    {
      OFFSET 0 0 -42.358652
      CHANNELS 3 Zrotation Yrotation Xrotation
      JOINT RightFoot
      {
        OFFSET 0 0 -39.357303
        CHANNELS 3 Zrotation Yrotation Xrotation
      }
    }
  }
  JOINT SpineLow
  {
    OFFSET 0 0 4.719101
    CHANNELS 3 Zrotation Yrotation Xrotation
    JOINT SpineMid
    {
      OFFSET 0 0 12.899191
      CHANNELS 3 Zrotation Yrotation Xrotation
      JOINT Chest
      {
        OFFSET 0 0 12.899191
        CHANNELS 3 Zrotation Yrotation Xrotation
        JOINT LeftShoulder
        {
          OFFSET 7.550562 1.41573 9.438202
          CHANNELS 3 Zrotation Yrotation Xrotation
          JOINT LeftArm
          {
            OFFSET 9.155056 0 4.247191
            CHANNELS 3 Zrotation Yrotation Xrotation
            JOINT LeftForearm
            {
              OFFSET 0 0 25.771955
              CHANNELS 3 Zrotation Yrotation Xrotation
              JOINT LeftHand
              {
                OFFSET 0 0 25.197169
                CHANNELS 3 Zrotation Yrotation Xrotation
              }
            }
          }
        }
        JOINT RightShoulder
        {
          OFFSET -7.550562 1.41573 9.438202
          CHANNELS 3 Zrotation Yrotation Xrotation
          JOINT RightArm
          {
            OFFSET -9.155056 0 4.247191
            CHANNELS 3 Zrotation Yrotation Xrotation
            JOINT RightForearm
            {
              OFFSET 0 0 -25.771955
              CHANNELS 3 Zrotation Yrotation Xrotation
              JOINT RightHand
              {
                OFFSET 0 0 -25.197169
                CHANNELS 3 Zrotation Yrotation Xrotation
              }
            }
          }
        }
        JOINT Neck
        {
          OFFSET 0 0 15.101124
          CHANNELS 3 Zrotation Yrotation Xrotation
          JOINT Head
          {
            OFFSET 0 0 11.325843
            CHANNELS 3 Zrotation Yrotation Xrotation
            End Site
            {
              OFFSET 0 0 14.157303
            }
          }
        }
      }
    }
  }
}
MOTION
Frames: 13
Frame Time: 0.0
0.0  93.25843  0.0  -1.9439  -35.752991  -88.758054  18.713368  -9.798242  2.736221  7.276706  -0.984345  11.202309  5.358447  0.934885  1.493287  4.969592  1.084833  -10.147793  -4.592203  7.695827  4.849263  0.890046  -0.180369  0.310846  1.905316  -0.584553  -0.077947  5.210796  -1.590536  -0.258994  5.210795  -1.590536  -0.258994  -20.249439  21.300285  -5.515361  129.173891  41.693736  -164.779445  39.591569  4.240077  30.755912  115.499245  23.336895  19.259201  9.282982  -13.657077  25.491243  119.328929  40.372909  45.575624  -9.556059  -18.296733  -106.178692  77.953485  13.970101  3.282131  2.465706  4.8786  5.621227  1.803371  3.682049  4.193726  
0.0  93.25843  0.0  -2.238941  -36.065056  -88.719708  19.197319  -10.173647  2.784951  7.647418  -0.78972  11.489968  4.989446  0.860174  1.27622  5.05755  0.818704  -9.95138  -5.850437  7.468543  4.300979  1.631487  -0.02361  0.413819  1.917813  -0.63725  -0.027778  5.243996  -1.738398  -0.126421  5.243996  -1.738398  -0.126421  -20.133407  20.999326  -5.639131  129.657201  41.656157  -163.638111  38.430871  4.577927  29.757215  115.90598  22.540911  19.120528  8.746612  -13.551811  25.055257  120.184772  39.698494  45.741639  -10.5227  -17.9809  -106.152702  77.623378  13.942293  3.271126  2.404072  4.839663  5.508495  1.758435  3.651816  4.10991  
0.0  93.25843  0.0  -2.396346  -36.026403  -88.6182  19.345242  -10.389758  2.605023  7.660363  -0.644916  11.593765  4.941154  0.844131  1.280435  5.02745  0.697223  -9.876874  -5.763154  7.447894  4.181682  1.679009  -0.029851  0.416604  1.934139  -0.647686  0.004952  5.287807  -1.769478  -0.038267  5.287807  -1.769478  -0.038267  -20.337245  20.62029  -5.855314  129.414093  41.42407  -163.104859  37.295144  3.972175  29.543886  115.1897  22.580403  18.977862  8.617847  -13.595609  24.824507  120.196274  39.692815  45.949058  -10.492465  -18.643919  -106.523205  77.09276  14.187494  3.298923  2.164615  4.724883  5.411097  1.580767  3.563196  4.039313  
0.0  93.25843  0.0  -2.618475  -35.764872  -88.519714  19.570703  -10.66004  2.484919  7.529972  -0.53226  11.660989  4.785082  0.826471  1.236767  4.836561  0.495612  -9.768532  -6.712209  7.339536  3.792828  2.210109  0.112941  0.457459  1.988809  -0.66541  0.038576  5.436415  -1.820588  0.05067  5.436415  -1.820588  0.05067  -20.801843  20.314345  -6.097687  128.660486  41.025307  -162.99765  35.506415  3.100777  29.274748  114.615512  22.726377  18.649556  7.96917  -13.606657  24.372194  119.990619  39.617935  46.066466  -9.521807  -19.825272  -107.312593  76.475196  14.612647  3.641745  1.625622  4.525135  5.347588  1.179019  3.408402  3.99658  
0.0  93.25843  0.0  -2.700345  -35.209282  -88.451705  19.492873  -10.832695  2.220138  7.325243  -0.393032  11.786296  4.738263  0.816176  1.243992  4.539991  0.439348  -9.620583  -6.483276  7.359416  3.711611  2.179961  0.113553  0.444801  1.985399  -0.671903  0.040402  5.427055  -1.838472  0.05522  5.427055  -1.838472  0.05522  -21.032509  20.096067  -6.138012  127.794603  40.762905  -163.314858  33.556089  1.978391  29.384363  114.134652  22.864218  18.490876  7.723573  -13.610559  24.164742  119.353025  39.697384  46.108112  -8.551099  -20.921287  -108.168009  75.83534  14.986209  3.883598  1.206869  4.378812  5.419934  0.865889  3.295126  4.054327  
0.0  93.25843  0.0  -2.735487  -34.421363  -88.41572  19.451262  -11.020254  2.008678  7.042045  -0.21864  11.916486  4.612497  0.78942  1.137841  4.032305  0.42288  -9.455584  -6.964743  7.329567  3.436731  2.587433  0.187779  0.513709  1.923585  -0.693861  0.025678  5.25852  -1.897261  0.014967  5.25852  -1.897261  0.014966  -20.871502  19.96529  -6.021607  127.655923  40.841003  -163.474763  32.333944  0.970015  30.233222  113.627518  23.006404  18.761371  7.722565  -13.46455  24.127069  118.228786  40.050776  46.023197  -7.274263  -21.712065  -109.181059  75.527292  15.241752  4.100564  0.798164  4.171842  5.564819  0.560365  3.136459  4.16632  
0.0  93.25843  0.0  -2.724347  -33.418238  -88.400664  19.17366  -11.172488  1.6827  6.732171  -0.050439  12.081756  4.645652  0.810771  1.091552  3.583547  0.491421  -9.250888  -6.893907  7.359577  3.416102  2.539488  0.21262  0.484693  1.889747  -0.692575  0.032362  5.165809  -1.894285  0.034301  5.165809  -1.894285  0.0343  -20.933128  19.668385  -5.946257  128.211236  40.945548  -162.975769  31.951513  0.078966  31.198454  113.202606  23.051505  19.407143  7.509035  -13.342054  23.969468  117.217007  40.104829  45.757231  -6.78119  -21.86834  -109.814977  75.447382  15.378079  4.271612  0.31528  4.061351  5.640228  0.198842  3.04923  4.226301  
0.0  93.25843  0.0  -2.871951  -32.415511  -88.469022  19.228134  -11.51868  1.570604  6.286931  0.128948  12.177304  4.745279  0.861339  1.014848  3.179054  0.396456  -8.92418  -7.67231  7.334725  3.219509  2.952287  0.337718  0.50852  1.854776  -0.712176  0.071979  5.069076  -1.950864  0.142045  5.069077  -1.950864  0.142045  -20.765536  19.428787  -5.882453  128.995526  41.111671  -162.303432  31.832411  -0.834271  32.370547  112.820857  22.985828  20.192153  7.444959  -13.170094  23.81841  115.692657  40.580484  45.22201  -5.969294  -21.712989  -110.476732  75.512567  15.384421  4.470295  -0.239433  3.841851  5.650803  -0.2151  2.879467  4.238021  
0.0  93.25843  0.0  -2.810884  -31.003774  -88.454199  18.805111  -11.658536  1.199038  5.859826  0.304182  12.329404  4.794764  0.924302  0.955539  2.692262  0.546277  -8.729066  -7.775595  7.394199  3.293848  2.890227  0.364507  0.460504  1.805878  -0.699451  0.087617  4.934919  -1.917193  0.187168  4.93492  -1.917192  0.187168  -20.759268  19.24916  -5.88537  129.822131  41.328345  -161.719989  31.370311  -1.829408  33.765534  112.326553  22.713092  20.697684  7.221643  -12.965409  23.706742  114.379809  40.794519  44.659968  -5.707907  -21.270019  -110.977946  75.590164  15.32525  4.671605  -0.784977  3.790068  5.663436  -0.62375  2.835575  4.250908  
0.0  93.25843  0.0  -2.843466  -29.944754  -88.649375  19.227242  -11.906431  1.239361  5.117688  0.505557  12.306683  4.7257  0.955164  0.879154  1.761519  0.346466  -8.53805  -7.442818  7.588482  3.497691  3.124779  0.478273  0.447381  1.822766  -0.718397  0.137498  4.979605  -1.972739  0.321542  4.979605  -1.972739  0.321542  -20.579401  19.195875  -5.943895  130.657034  41.454191  -161.208761  30.138353  -2.923793  35.412797  111.545241  22.252567  20.666726  6.836984  -12.598466  23.58233  113.074573  40.953503  43.961266  -4.688471  -20.847486  -111.899322  76.234612  15.190624  5.536207  -1.481611  3.693219  5.659699  -1.145185  2.756499  4.252295  
0.0  93.25843  0.0  -2.728056  -28.188926  -88.610512  18.754083  -12.010386  0.825036  4.436111  0.706679  12.406657  4.666734  0.981506  0.847249  1.148895  0.573242  -8.371034  -7.580005  7.67314  3.64188  2.991989  0.504129  0.391559  1.774688  -0.710448  0.138056  4.848154  -1.95086  0.325091  4.848153  -1.95086  0.325091  -20.491168  19.076094  -5.993024  131.654765  41.484949  -160.612699  27.87034  -4.109932  37.351372  110.423967  21.69756  20.2484  6.572846  -12.343493  23.567608  111.667197  41.049389  43.311844  -4.709024  -20.165075  -112.373048  76.511083  14.910772  5.819634  -2.131402  3.74231  5.716149  -1.633199  2.787135  4.298714  
0.0  93.25843  0.0  -2.634889  -27.06267  -88.835446  19.099092  -12.105268  0.776772  3.327002  0.877479  12.236873  4.680603  0.978389  0.892934  1.099158  0.775158  -7.926433  -7.509199  7.792347  3.844669  2.910055  0.532888  0.348574  1.846272  -0.723912  0.18398  5.042462  -1.991446  0.447424  5.042462  -1.991446  0.447424  -20.395853  19.100757  -6.174086  132.752489  41.32069  -160.103589  24.652855  -5.395387  39.635682  109.018982  20.934131  19.813161  4.924119  -11.987437  22.776114  111.421103  39.849119  42.70068  -4.955013  -19.292356  -112.73529  76.92388  14.529225  6.054775  -2.864969  3.848107  5.805962  -2.184758  2.859255  4.371008  
0.0  93.25843  0.0  -2.501087  -25.01742  -88.685417  18.434493  -12.122456  0.226374  2.530114  1.06887  12.343675  4.588989  0.954434  0.881206  0.209314  1.058603  -7.83808  -7.709702  7.845927  3.980146  2.754141  0.559948  0.290785  1.816308  -0.715821  0.148858  4.961616  -1.966526  0.35297  4.961616  -1.966526  0.35297  -20.36313  19.001092  -6.385081  134.235977  40.788665  -159.460168  20.944697  -6.595996  42.278765  107.452765  20.047957  19.505873  4.584666  -11.77444  22.945455  109.657144  39.768545  41.940748  -5.469597  -18.123021  -113.101507  77.462002  14.050712  6.278466  -3.658733  3.950051  6.023701  -2.782269  2.926954  4.539855  
